<svg width="375" height="345" viewBox="0 0 375 345" fill="none" xmlns="http://www.w3.org/2000/svg">
<rect y="285" width="375" height="60" fill="#D3AE46"/>
<path fill-rule="evenodd" clip-rule="evenodd" d="M64.8904 28.9308C64.8904 20.6146 64.8904 16.4565 63.673 13.1287C61.6498 7.5983 57.2921 3.24063 51.7617 1.21743C48.4339 0 44.2758 0 35.9596 0H32.4452C20.8238 0 15.0131 0 10.61 2.34133C7.09159 4.21226 4.21226 7.09159 2.34133 10.61C0 15.0131 0 20.8238 0 32.4452V305C0 323.856 0 333.284 5.85786 339.142C11.7157 345 21.1438 345 40 345H335C353.856 345 363.284 345 369.142 339.142C375 333.284 375 323.856 375 305V32.9452C375 20.8511 375 14.8041 372.471 10.2652C370.661 7.01758 367.982 4.33865 364.735 2.52909C360.196 0 354.149 0 342.055 0H338.04C329.724 0 325.566 0 322.238 1.21743C316.708 3.24063 312.35 7.5983 310.327 13.1287C309.11 16.4565 309.11 20.6146 309.11 28.9308C309.11 49.218 309.11 59.3616 304.286 67.7154C299.463 76.0692 290.679 81.141 273.11 91.2846L223 120.215L223 120.216C205.431 130.359 196.646 135.431 187 135.431C177.354 135.431 168.569 130.359 151 120.215L100.89 91.2846C83.3212 81.141 74.5366 76.0692 69.7135 67.7154C64.8904 59.3616 64.8904 49.218 64.8904 28.9308Z" fill="#D3AE46"/>
</svg>
