<svg width="50" height="50" viewBox="0 0 50 50" fill="none" xmlns="http://www.w3.org/2000/svg">
<g filter="url(#filter0_b_339_1505)">
<path d="M19 3.4641C22.7128 1.32051 27.2872 1.32051 31 3.4641L40.6506 9.0359C44.3634 11.1795 46.6506 15.141 46.6506 19.4282V30.5718C46.6506 34.859 44.3634 38.8205 40.6506 40.9641L31 46.5359C27.2872 48.6795 22.7128 48.6795 19 46.5359L9.34937 40.9641C5.63655 38.8205 3.34937 34.859 3.34937 30.5718V19.4282C3.34937 15.141 5.63655 11.1795 9.34937 9.0359L19 3.4641Z" fill="white" fill-opacity="0.2"/>
<path d="M19.0673 3.58068C22.7385 1.46114 27.2615 1.46114 30.9327 3.58068L40.5833 9.15248C44.2545 11.272 46.516 15.1891 46.516 19.4282V30.5718C46.516 34.8109 44.2545 38.728 40.5833 40.8475L30.9327 46.4193C27.2615 48.5389 22.7385 48.5389 19.0673 46.4193L9.41667 40.8475C5.74551 38.728 3.48398 34.8109 3.48398 30.5718V19.4282C3.48398 15.1891 5.74551 11.272 9.41667 9.15248L19.0673 3.58068Z" stroke="url(#paint0_linear_339_1505)" stroke-width="0.269231"/>
</g>
<g filter="url(#filter1_bd_339_1505)">
<path d="M21.1912 16.1559C20.3048 15.948 19.3822 15.948 18.4958 16.1559C17.3348 16.4283 16.4283 17.3348 16.1559 18.4958C15.948 19.3822 15.948 20.3048 16.1559 21.1912C16.4283 22.3522 17.3348 23.2587 18.4958 23.531C19.3822 23.739 20.3048 23.739 21.1912 23.531C22.3522 23.2587 23.2587 22.3522 23.531 21.1912C23.739 20.3048 23.739 19.3822 23.531 18.4958C23.2587 17.3348 22.3522 16.4283 21.1912 16.1559Z" fill="#D3AE46"/>
<path d="M21.1912 26.469C20.3048 26.261 19.3822 26.261 18.4958 26.469C17.3348 26.7413 16.4283 27.6478 16.1559 28.8088C15.948 29.6952 15.948 30.6178 16.1559 31.5042C16.4283 32.6652 17.3348 33.5717 18.4958 33.8441C19.3822 34.052 20.3048 34.052 21.1912 33.8441C22.3522 33.5717 23.2587 32.6652 23.531 31.5042C23.739 30.6178 23.739 29.6952 23.531 28.8088C23.2587 27.6478 22.3522 26.7413 21.1912 26.469Z" fill="#D3AE46"/>
<path d="M31.5042 16.1559C30.6178 15.948 29.6952 15.948 28.8088 16.1559C27.6478 16.4283 26.7413 17.3348 26.469 18.4958C26.261 19.3822 26.261 20.3048 26.469 21.1912C26.7413 22.3522 27.6478 23.2587 28.8088 23.531C29.6952 23.739 30.6178 23.739 31.5042 23.531C32.6652 23.2587 33.5717 22.3522 33.8441 21.1912C34.052 20.3048 34.052 19.3822 33.8441 18.4958C33.5717 17.3348 32.6652 16.4283 31.5042 16.1559Z" fill="#D3AE46"/>
<path d="M31.5042 26.469C30.6178 26.261 29.6952 26.261 28.8088 26.469C27.6478 26.7413 26.7413 27.6478 26.469 28.8088C26.261 29.6952 26.261 30.6178 26.469 31.5042C26.7413 32.6652 27.6478 33.5717 28.8088 33.8441C29.6952 34.052 30.6178 34.052 31.5042 33.8441C32.6652 33.5717 33.5717 32.6652 33.8441 31.5042C34.052 30.6178 34.052 29.6952 33.8441 28.8088C33.5717 27.6478 32.6652 26.7413 31.5042 26.469Z" fill="#D3AE46"/>
<path d="M18.5186 16.2533C19.39 16.0489 20.2969 16.0489 21.1684 16.2533C22.2924 16.517 23.17 17.3946 23.4337 18.5186C23.6381 19.39 23.6381 20.2969 23.4337 21.1684C23.17 22.2924 22.2924 23.17 21.1684 23.4337C20.2969 23.6381 19.39 23.6381 18.5186 23.4337C17.3946 23.17 16.517 22.2924 16.2533 21.1684C16.0489 20.2969 16.0489 19.39 16.2533 18.5186C16.517 17.3946 17.3946 16.517 18.5186 16.2533ZM18.5186 26.5663C19.39 26.3619 20.2969 26.3619 21.1684 26.5663C22.2924 26.83 23.17 27.7076 23.4337 28.8316C23.6381 29.7031 23.6381 30.61 23.4337 31.4814C23.17 32.6054 22.2924 33.483 21.1684 33.7467C20.2969 33.9511 19.39 33.9511 18.5186 33.7467C17.3946 33.483 16.517 32.6054 16.2533 31.4814C16.0489 30.61 16.0489 29.7031 16.2533 28.8316C16.517 27.7076 17.3946 26.83 18.5186 26.5663ZM28.8316 16.2533C29.7031 16.0489 30.61 16.0489 31.4814 16.2533C32.6054 16.517 33.483 17.3946 33.7467 18.5186C33.9511 19.39 33.9511 20.2969 33.7467 21.1684C33.483 22.2924 32.6054 23.17 31.4814 23.4337C30.61 23.6381 29.7031 23.6381 28.8316 23.4337C27.7076 23.17 26.83 22.2924 26.5663 21.1684C26.3619 20.2969 26.3619 19.39 26.5663 18.5186C26.83 17.3946 27.7076 16.517 28.8316 16.2533ZM28.8316 26.5663C29.7031 26.3619 30.61 26.3619 31.4814 26.5663C32.6054 26.83 33.483 27.7076 33.7467 28.8316C33.9511 29.7031 33.9511 30.61 33.7467 31.4814C33.483 32.6054 32.6054 33.483 31.4814 33.7467C30.61 33.9511 29.7031 33.9511 28.8316 33.7467C27.7076 33.483 26.83 32.6054 26.5663 31.4814C26.3619 30.61 26.3619 29.7031 26.5663 28.8316C26.83 27.7076 27.7076 26.83 28.8316 26.5663Z" stroke="url(#paint1_linear_339_1505)" stroke-width="0.2"/>
</g>
<defs>
<filter id="filter0_b_339_1505" x="-3.3814" y="-4.87438" width="56.7628" height="59.7488" filterUnits="userSpaceOnUse" color-interpolation-filters="sRGB">
<feFlood flood-opacity="0" result="BackgroundImageFix"/>
<feGaussianBlur in="BackgroundImageFix" stdDeviation="3.36538"/>
<feComposite in2="SourceAlpha" operator="in" result="effect1_backgroundBlur_339_1505"/>
<feBlend mode="normal" in="SourceGraphic" in2="effect1_backgroundBlur_339_1505" result="shape"/>
</filter>
<filter id="filter1_bd_339_1505" x="-9" y="-9" width="68" height="68" filterUnits="userSpaceOnUse" color-interpolation-filters="sRGB">
<feFlood flood-opacity="0" result="BackgroundImageFix"/>
<feGaussianBlur in="BackgroundImageFix" stdDeviation="12.5"/>
<feComposite in2="SourceAlpha" operator="in" result="effect1_backgroundBlur_339_1505"/>
<feColorMatrix in="SourceAlpha" type="matrix" values="0 0 0 0 0 0 0 0 0 0 0 0 0 0 0 0 0 0 127 0" result="hardAlpha"/>
<feOffset dx="5" dy="5"/>
<feGaussianBlur stdDeviation="5"/>
<feColorMatrix type="matrix" values="0 0 0 0 0 0 0 0 0 0 0 0 0 0 0 0 0 0 0.1 0"/>
<feBlend mode="normal" in2="effect1_backgroundBlur_339_1505" result="effect2_dropShadow_339_1505"/>
<feBlend mode="normal" in="SourceGraphic" in2="effect2_dropShadow_339_1505" result="shape"/>
</filter>
<linearGradient id="paint0_linear_339_1505" x1="15.3409" y1="5.90909" x2="5.24574" y2="49.8418" gradientUnits="userSpaceOnUse">
<stop stop-color="white" stop-opacity="0"/>
<stop offset="1" stop-color="white" stop-opacity="0.2"/>
</linearGradient>
<linearGradient id="paint1_linear_339_1505" x1="25" y1="16" x2="25" y2="34" gradientUnits="userSpaceOnUse">
<stop stop-color="white"/>
<stop offset="1" stop-color="white" stop-opacity="0"/>
</linearGradient>
</defs>
</svg>
