<svg width="250" height="250" viewBox="0 0 250 250" fill="none" xmlns="http://www.w3.org/2000/svg">
<path d="M109 9.2376C118.901 3.52135 131.099 3.52136 141 9.2376L217.253 53.2624C227.154 58.9786 233.253 69.5427 233.253 80.9752V169.025C233.253 180.457 227.154 191.021 217.253 196.738L141 240.762C131.099 246.479 118.901 246.479 109 240.762L32.7468 196.738C22.846 191.021 16.7468 180.457 16.7468 169.025V80.9752C16.7468 69.5427 22.846 58.9786 32.7468 53.2624L109 9.2376Z" fill="url(#paint0_linear_14_15)"/>
<g filter="url(#filter0_b_14_15)">
<path d="M111 29.0829C119.663 24.0812 130.337 24.0812 139 29.0829L201.067 64.9171C209.73 69.9188 215.067 79.1624 215.067 89.1658V160.834C215.067 170.838 209.73 180.081 201.067 185.083L139 220.917C130.337 225.919 119.663 225.919 111 220.917L48.9334 185.083C40.2701 180.081 34.9334 170.838 34.9334 160.834V89.1658C34.9334 79.1624 40.2701 69.9188 48.9334 64.9171L111 29.0829Z" fill="white" fill-opacity="0.11"/>
<path d="M138.75 29.5159L200.817 65.3501C209.325 70.2625 214.567 79.341 214.567 89.1658V160.834C214.567 170.659 209.325 179.737 200.817 184.65L138.75 220.484C130.241 225.396 119.759 225.396 111.25 220.484L49.1834 184.65C40.6748 179.737 35.4334 170.659 35.4334 160.834V89.1658C35.4334 79.341 40.6748 70.2625 49.1834 65.3501L111.25 29.5159C119.759 24.6035 130.241 24.6035 138.75 29.5159Z" stroke="url(#paint1_linear_14_15)"/>
</g>
<path style="mix-blend-mode:color-burn" d="M125.141 206.292C164.432 206.292 196.283 173.513 196.283 133.078C196.283 92.643 164.432 59.8638 125.141 59.8638C85.8511 59.8638 54 92.643 54 133.078C54 173.513 85.8511 206.292 125.141 206.292Z" fill="url(#paint2_radial_14_15)"/>
<path d="M120.158 64.5114C120.649 64.0439 121.301 63.7831 121.979 63.7831C122.658 63.7831 123.31 64.0439 123.801 64.5114C127.498 68.0714 136.969 75.523 153.586 78.1597C166.841 80.2665 174.311 78.0946 178.063 76.1674C178.431 75.9771 178.84 75.878 179.255 75.8786C179.67 75.8791 180.078 75.9792 180.446 76.1705C180.814 76.3618 181.131 76.6387 181.37 76.9778C181.608 77.3169 181.762 77.7084 181.818 78.1194C183.857 95.2688 187.008 160.97 121.992 194.234C56.9603 160.97 60.1113 95.2688 62.1438 78.1194C62.1998 77.7084 62.3536 77.3169 62.5923 76.9778C62.831 76.6387 63.1477 76.3618 63.5157 76.1705C63.8837 75.9792 64.2923 75.8791 64.707 75.8786C65.1217 75.878 65.5305 75.9771 65.899 76.1674C69.6357 78.0946 77.1089 80.2665 90.3761 78.1597C106.99 75.523 116.461 68.0714 120.158 64.5114Z" fill="url(#paint3_linear_14_15)"/>
<path style="mix-blend-mode:screen" d="M182.627 95.7831C182.627 96.1549 182.606 96.5329 182.596 96.914C182.547 98.2897 182.479 99.7026 182.383 101.187C182.383 101.4 182.352 101.62 182.339 101.844C182.286 102.559 182.231 103.29 182.166 104.031C182.128 104.465 182.088 104.905 182.045 105.345C182.045 105.4 182.045 105.459 182.029 105.518C182.005 105.766 181.98 106.017 181.952 106.271C181.899 106.77 181.843 107.278 181.781 107.792C181.754 108.046 181.723 108.304 181.692 108.561C181.537 109.846 181.357 111.152 181.152 112.48C181.084 112.911 181.019 113.348 180.945 113.785C180.929 113.881 180.914 113.98 180.895 114.079C180.849 114.349 180.805 114.618 180.759 114.888C180.666 115.427 180.568 115.969 180.465 116.514C180.412 116.799 180.356 117.084 180.3 117.376C180.245 117.667 180.198 117.893 180.146 118.153C180.093 118.414 180.037 118.708 179.978 118.981C179.873 119.501 179.758 120.022 179.644 120.53C179.449 121.397 179.243 122.271 179.024 123.151L178.813 123.997C178.742 124.279 178.668 124.561 178.596 124.846C178.525 125.131 178.448 125.413 178.37 125.698L178.138 126.553C178.057 126.835 177.98 127.12 177.896 127.408C177.812 127.696 177.741 127.957 177.658 128.232C177.403 129.1 177.134 129.98 176.852 130.86C176.762 131.148 176.669 131.436 176.576 131.727C176.483 132.018 176.381 132.307 176.288 132.592C176.081 133.172 175.875 133.754 175.668 134.336C175.462 134.919 175.25 135.501 175.033 136.084L174.702 136.957C174.587 137.267 174.476 137.546 174.361 137.837C174.246 138.128 174.128 138.423 174.011 138.714C173.773 139.299 173.531 139.884 173.283 140.471L172.973 141.177C172.421 142.451 171.839 143.733 171.225 145.007C170.965 145.549 170.702 146.088 170.429 146.627C170.119 147.247 169.809 147.867 169.481 148.486C169.187 149.038 168.889 149.592 168.586 150.144C168.586 150.169 168.558 150.193 168.548 150.215C168.239 150.776 167.929 151.337 167.6 151.894L167.572 151.947C167.287 152.437 167.002 152.923 166.708 153.413C165.791 154.945 164.824 156.468 163.808 157.98C163.242 158.829 162.657 159.67 162.054 160.505C162.054 160.527 162.026 160.545 162.014 160.564C161.602 161.134 161.184 161.707 160.756 162.271C160.545 162.556 160.328 162.841 160.112 163.123C159.895 163.405 159.616 163.764 159.365 164.083C159.173 164.331 158.981 164.573 158.782 164.818C158.584 165.063 158.321 165.394 158.085 165.682C157.443 166.463 156.785 167.242 156.112 168.018L155.981 168.164C155.74 168.443 155.492 168.719 155.247 168.994C155.002 169.27 154.754 169.546 154.503 169.822L153.744 170.643C153.462 170.952 153.174 171.262 152.877 171.557C152.654 171.798 152.421 172.034 152.189 172.272C151.957 172.511 151.656 172.815 151.39 173.081C150.854 173.62 150.308 174.159 149.754 174.689C149.478 174.956 149.196 175.219 148.914 175.488C148.632 175.758 148.344 176.021 148.053 176.291C147.485 176.816 146.906 177.332 146.318 177.84C146.023 178.1 145.726 178.358 145.425 178.618L144.558 179.411C144.248 179.668 143.938 179.925 143.628 180.176C143.318 180.427 143.009 180.684 142.699 180.939C142.389 181.193 142.079 181.447 141.748 181.695C141.416 181.942 141.109 182.196 140.784 182.447L139.802 183.194C139.476 183.439 139.145 183.687 138.81 183.928C138.476 184.17 138.138 184.421 137.8 184.663C137.462 184.904 137.122 185.149 136.778 185.391C136.434 185.633 136.065 185.89 135.703 186.134C135.34 186.379 135.024 186.596 134.683 186.825C133.605 187.547 132.514 188.26 131.374 188.963C131.024 189.183 130.668 189.403 130.308 189.617C129.949 189.831 129.67 190.004 129.348 190.196C129.239 190.265 129.125 190.333 129.013 190.395L128.028 190.974C127.644 191.197 127.256 191.42 126.866 191.64C126.476 191.86 126.15 192.043 125.782 192.26C125.314 192.52 124.852 192.777 124.366 193.028L124.019 193.217C122.81 193.803 123.16 193.803 121.754 194.147V63.7988C122.131 63.7547 122.514 63.7931 122.875 63.9113C123.236 64.0295 123.567 64.2248 123.845 64.4835C123.91 64.5486 123.982 64.6136 124.053 64.6787C124.124 64.7438 124.26 64.877 124.363 64.9885C124.465 65.1001 124.672 65.2767 124.84 65.4223C124.911 65.4905 124.985 65.5555 125.063 65.6206C125.14 65.6857 125.215 65.7538 125.292 65.8189C125.602 66.0884 125.933 66.3704 126.293 66.6585C126.473 66.8042 126.655 66.9684 126.847 67.0985C127.04 67.2286 127.235 67.4083 127.436 67.554C127.638 67.6996 127.848 67.8638 128.056 68.0218C128.694 68.4897 129.391 68.973 130.144 69.4626C130.395 69.6299 130.652 69.7941 130.916 69.9583L131.315 70.2031C132.301 70.8227 133.373 71.4207 134.528 72.0249L135.17 72.3502C135.599 72.5568 136.041 72.7726 136.496 72.9978C136.951 73.2116 137.425 73.4254 137.893 73.633C138.132 73.7383 138.373 73.8436 138.618 73.9428C139.108 74.1493 139.608 74.3559 140.118 74.5625L140.895 74.8723C141.224 74.9962 141.552 75.1171 141.89 75.2348L142.398 75.4145C142.909 75.588 143.43 75.7646 143.963 75.9319L145.041 76.2604L145.924 76.5144L146.829 76.7592L147.758 76.9978L148.741 77.2332L149.524 77.413C150.268 77.5772 151.024 77.7228 151.802 77.8746L152.629 78.0202L153.658 78.1937C157.017 78.7472 160.415 79.0352 163.82 79.0551H164.61C164.812 79.0551 165.004 79.0551 165.202 79.0551C165.348 79.0551 165.49 79.0551 165.636 79.0551C165.782 79.0551 166.008 79.0551 166.194 79.0334L166.671 79.0055C167.29 78.9725 167.884 78.9239 168.452 78.8599L168.858 78.8165C169.369 78.7607 169.859 78.6926 170.327 78.6213C170.637 78.5686 170.946 78.5191 171.256 78.4602C171.405 78.4354 171.548 78.4075 171.69 78.3765C172.037 78.3115 172.375 78.2371 172.703 78.1628C173.122 78.0667 173.521 77.9645 173.905 77.8529L174.302 77.7383L174.686 77.6205C175.067 77.5028 175.427 77.3851 175.764 77.258C175.876 77.2209 175.984 77.1775 176.09 77.1372L176.465 76.9885C176.737 76.88 176.998 76.7685 177.245 76.657C177.555 76.5175 177.843 76.375 178.113 76.2356C178.48 76.0461 178.888 75.9472 179.301 75.9472C179.714 75.9472 180.121 76.0461 180.489 76.2357C180.856 76.4252 181.173 76.6999 181.412 77.0367C181.651 77.3736 181.807 77.7629 181.865 78.172C181.915 78.581 181.964 79.0179 182.014 79.4796C182.036 79.6748 182.054 79.8731 182.076 80.0775C182.125 80.6012 182.178 81.1589 182.231 81.7445C182.249 81.9892 182.271 82.2371 182.293 82.485C182.314 82.7328 182.336 83.083 182.358 83.3897C182.379 83.6964 182.401 83.9629 182.417 84.2572C182.485 85.3138 182.541 86.4261 182.587 87.6221C182.587 87.9629 182.612 88.3068 182.621 88.6569C182.63 89.007 182.64 89.4036 182.649 89.7847C182.658 90.1658 182.649 90.4663 182.668 90.8165C182.668 90.9187 182.668 91.021 182.668 91.1263C182.668 91.3525 182.668 91.5818 182.668 91.811C182.668 93.0586 182.654 94.3827 182.627 95.7831Z" fill="url(#paint4_linear_14_15)"/>
<path d="M126.641 157.382V133.407C131.23 132.313 135.317 129.706 138.244 126.006C141.17 122.305 142.765 117.728 142.771 113.01V99.213H100.844V113.01C100.851 117.729 102.448 122.308 105.376 126.008C108.304 129.708 112.393 132.315 116.984 133.407V144.759H109.548C109.248 144.76 108.961 144.879 108.749 145.091C108.537 145.303 108.418 145.59 108.417 145.89V151.064C108.417 151.364 108.536 151.652 108.748 151.864C108.96 152.076 109.248 152.195 109.548 152.195H116.984V157.385C116.984 157.685 117.103 157.972 117.315 158.184C117.527 158.396 117.815 158.516 118.115 158.516H125.52C125.668 158.515 125.814 158.485 125.951 158.427C126.087 158.37 126.211 158.286 126.315 158.181C126.42 158.076 126.502 157.951 126.558 157.814C126.614 157.677 126.642 157.53 126.641 157.382ZM108.804 113.01V107.173H134.812V113.01C134.685 116.374 133.259 119.557 130.834 121.892C128.409 124.227 125.174 125.531 121.808 125.531C118.442 125.531 115.207 124.227 112.782 121.892C110.357 119.557 108.931 116.374 108.804 113.01Z" fill="url(#paint5_linear_14_15)"/>
<defs>
<filter id="filter0_b_14_15" x="9.93335" y="0.331612" width="230.133" height="249.337" filterUnits="userSpaceOnUse" color-interpolation-filters="sRGB">
<feFlood flood-opacity="0" result="BackgroundImageFix"/>
<feGaussianBlur in="BackgroundImageFix" stdDeviation="12.5"/>
<feComposite in2="SourceAlpha" operator="in" result="effect1_backgroundBlur_14_15"/>
<feBlend mode="normal" in="SourceGraphic" in2="effect1_backgroundBlur_14_15" result="shape"/>
</filter>
<linearGradient id="paint0_linear_14_15" x1="-67.5" y1="340.5" x2="308.852" y2="-142.191" gradientUnits="userSpaceOnUse">
<stop stop-color="#D3AE46"/>
<stop offset="0.125" stop-color="#D3AE46"/>
<stop offset="0.317708" stop-color="#13141D"/>
<stop offset="0.578125" stop-color="#D3AE46"/>
<stop offset="0.786458" stop-color="#0A0A33"/>
<stop offset="1" stop-color="#0A0A33"/>
</linearGradient>
<linearGradient id="paint1_linear_14_15" x1="84.8182" y1="45.5818" x2="42.8223" y2="228.342" gradientUnits="userSpaceOnUse">
<stop stop-color="white" stop-opacity="0"/>
<stop offset="1" stop-color="white" stop-opacity="0.2"/>
</linearGradient>
<radialGradient id="paint2_radial_14_15" cx="0" cy="0" r="1" gradientUnits="userSpaceOnUse" gradientTransform="translate(125.265 132.742) scale(71.1241 73.0817)">
<stop stop-color="#636982"/>
<stop offset="0.05" stop-color="#767C91"/>
<stop offset="0.18" stop-color="#A0A3B3"/>
<stop offset="0.31" stop-color="#C2C5CE"/>
<stop offset="0.44" stop-color="#DDDEE4"/>
<stop offset="0.58" stop-color="#F0F1F3"/>
<stop offset="0.72" stop-color="#FBFBFC"/>
<stop offset="0.87" stop-color="white"/>
</radialGradient>
<linearGradient id="paint3_linear_14_15" x1="57.1245" y1="129.007" x2="226.62" y2="129.007" gradientUnits="userSpaceOnUse">
<stop stop-color="#0D0E19"/>
<stop offset="0.6" stop-color="#20222A"/>
<stop offset="0.84" stop-color="#3E4151"/>
<stop offset="1" stop-color="#4E5266"/>
</linearGradient>
<linearGradient id="paint4_linear_14_15" x1="80.4093" y1="128.957" x2="281.852" y2="128.957" gradientUnits="userSpaceOnUse">
<stop stop-color="#0D0E19"/>
<stop offset="0.6" stop-color="#20222A"/>
<stop offset="0.84" stop-color="#3E4151"/>
<stop offset="1" stop-color="#4E5266"/>
</linearGradient>
<linearGradient id="paint5_linear_14_15" x1="145.755" y1="172.068" x2="110.443" y2="90.0543" gradientUnits="userSpaceOnUse">
<stop offset="0.09" stop-color="#B27F2A"/>
<stop offset="0.16" stop-color="#B68631"/>
<stop offset="0.26" stop-color="#C39943"/>
<stop offset="0.38" stop-color="#D8B861"/>
<stop offset="0.52" stop-color="#F4E38B"/>
<stop offset="0.55" stop-color="#F4DD62"/>
<stop offset="0.66" stop-color="#F4DD62"/>
<stop offset="1" stop-color="#B27F2A"/>
</linearGradient>
</defs>
</svg>
