<svg width="250" height="250" viewBox="0 0 250 250" fill="none" xmlns="http://www.w3.org/2000/svg">
<path d="M109 9.2376C118.901 3.52135 131.099 3.52136 141 9.2376L217.253 53.2624C227.154 58.9786 233.253 69.5427 233.253 80.9752V169.025C233.253 180.457 227.154 191.021 217.253 196.738L141 240.762C131.099 246.479 118.901 246.479 109 240.762L32.7468 196.738C22.846 191.021 16.7468 180.457 16.7468 169.025V80.9752C16.7468 69.5427 22.846 58.9786 32.7468 53.2624L109 9.2376Z" fill="url(#paint0_linear_14_24)"/>
<g filter="url(#filter0_b_14_24)">
<path d="M111 29.0829C119.663 24.0812 130.337 24.0812 139 29.0829L201.067 64.9171C209.73 69.9188 215.067 79.1624 215.067 89.1658V160.834C215.067 170.838 209.73 180.081 201.067 185.083L139 220.917C130.337 225.919 119.663 225.919 111 220.917L48.9334 185.083C40.2701 180.081 34.9334 170.838 34.9334 160.834V89.1658C34.9334 79.1624 40.2701 69.9188 48.9334 64.9171L111 29.0829Z" fill="white" fill-opacity="0.11"/>
<path d="M138.75 29.5159L200.817 65.3501C209.325 70.2625 214.567 79.341 214.567 89.1658V160.834C214.567 170.659 209.325 179.737 200.817 184.65L138.75 220.484C130.241 225.396 119.759 225.396 111.25 220.484L49.1834 184.65C40.6748 179.737 35.4334 170.659 35.4334 160.834V89.1658C35.4334 79.341 40.6748 70.2625 49.1834 65.3501L111.25 29.5159C119.759 24.6035 130.241 24.6035 138.75 29.5159Z" stroke="url(#paint1_linear_14_24)"/>
</g>
<path style="mix-blend-mode:color-burn" d="M125.858 206.292C165.149 206.292 197 173.513 197 133.078C197 92.643 165.149 59.8638 125.858 59.8638C86.5679 59.8638 54.7168 92.643 54.7168 133.078C54.7168 173.513 86.5679 206.292 125.858 206.292Z" fill="url(#paint2_radial_14_24)"/>
<path d="M120.874 64.5114C121.366 64.0439 122.018 63.7831 122.696 63.7831C123.374 63.7831 124.027 64.0439 124.518 64.5114C128.214 68.0714 137.686 75.523 154.303 78.1597C167.557 80.2666 175.028 78.0946 178.78 76.1674C179.148 75.9771 179.557 75.878 179.972 75.8786C180.386 75.8791 180.795 75.9792 181.163 76.1705C181.531 76.3618 181.848 76.6387 182.086 76.9778C182.325 77.3169 182.479 77.7084 182.535 78.1194C184.574 95.2688 187.725 160.97 122.709 194.234C57.6771 160.97 60.8281 95.2688 62.8606 78.1194C62.9166 77.7084 63.0704 77.3169 63.3091 76.9778C63.5478 76.6387 63.8645 76.3618 64.2325 76.1705C64.6005 75.9792 65.0091 75.8791 65.4238 75.8786C65.8385 75.878 66.2473 75.9771 66.6158 76.1674C70.3525 78.0946 77.8257 80.2666 91.0929 78.1597C107.706 75.523 117.178 68.0714 120.874 64.5114Z" fill="url(#paint3_linear_14_24)"/>
<path style="mix-blend-mode:screen" d="M183.344 95.7831C183.344 96.1549 183.322 96.5329 183.313 96.914C183.263 98.2897 183.195 99.7026 183.099 101.187C183.099 101.4 183.068 101.62 183.056 101.844C183.003 102.559 182.947 103.29 182.882 104.031C182.845 104.465 182.805 104.905 182.762 105.345C182.762 105.4 182.762 105.459 182.746 105.518C182.721 105.766 182.697 106.017 182.669 106.271C182.616 106.77 182.56 107.278 182.498 107.792C182.47 108.046 182.439 108.304 182.408 108.561C182.253 109.846 182.074 111.152 181.869 112.48C181.801 112.911 181.736 113.348 181.662 113.785C181.646 113.881 181.631 113.98 181.612 114.079C181.566 114.349 181.522 114.618 181.476 114.888C181.383 115.427 181.285 115.969 181.181 116.514C181.129 116.799 181.073 117.084 181.017 117.376C180.961 117.667 180.915 117.893 180.862 118.153C180.81 118.414 180.754 118.708 180.695 118.981C180.59 119.501 180.475 120.022 180.36 120.53C180.166 121.397 179.96 122.271 179.741 123.151L179.53 123.997C179.459 124.279 179.384 124.561 179.313 124.846C179.242 125.131 179.164 125.413 179.087 125.698L178.855 126.553C178.774 126.835 178.697 127.12 178.613 127.408C178.529 127.696 178.458 127.957 178.374 128.232C178.12 129.1 177.851 129.98 177.569 130.86C177.479 131.148 177.386 131.436 177.293 131.727C177.2 132.018 177.098 132.307 177.005 132.592C176.798 133.172 176.592 133.754 176.385 134.336C176.179 134.919 175.967 135.501 175.75 136.084L175.418 136.957C175.304 137.267 175.192 137.546 175.078 137.837C174.963 138.128 174.845 138.423 174.728 138.714C174.49 139.299 174.247 139.884 173.999 140.471L173.69 141.177C173.138 142.451 172.556 143.733 171.942 145.007C171.682 145.549 171.418 146.088 171.146 146.627C170.836 147.247 170.526 147.867 170.198 148.486C169.903 149.038 169.606 149.592 169.302 150.144C169.302 150.169 169.274 150.193 169.265 150.215C168.955 150.776 168.645 151.337 168.317 151.894L168.289 151.947C168.004 152.437 167.719 152.923 167.425 153.413C166.508 154.945 165.541 156.468 164.525 157.98C163.959 158.829 163.374 159.67 162.771 160.505C162.771 160.527 162.743 160.545 162.731 160.564C162.319 161.134 161.9 161.707 161.473 162.271C161.262 162.556 161.045 162.841 160.828 163.123C160.611 163.405 160.333 163.764 160.082 164.083C159.889 164.331 159.697 164.573 159.499 164.818C159.301 165.063 159.037 165.394 158.802 165.682C158.16 166.463 157.502 167.242 156.828 168.018L156.698 168.164C156.456 168.443 156.209 168.719 155.964 168.994C155.719 169.27 155.471 169.546 155.22 169.822L154.461 170.643C154.179 170.952 153.891 171.262 153.594 171.557C153.371 171.798 153.138 172.034 152.906 172.272C152.673 172.511 152.373 172.815 152.106 173.081C151.57 173.62 151.025 174.159 150.47 174.689C150.195 174.956 149.913 175.219 149.631 175.488C149.349 175.758 149.061 176.021 148.769 176.291C148.201 176.816 147.623 177.332 147.034 177.84C146.74 178.1 146.443 178.358 146.142 178.618L145.274 179.411C144.965 179.668 144.655 179.925 144.345 180.176C144.035 180.427 143.725 180.684 143.415 180.939C143.106 181.193 142.796 181.447 142.464 181.695C142.133 181.942 141.826 182.196 141.501 182.447L140.519 183.194C140.193 183.439 139.862 183.687 139.527 183.928C139.192 184.17 138.855 184.421 138.517 184.663C138.179 184.904 137.838 185.149 137.495 185.391C137.151 185.633 136.782 185.89 136.419 186.134C136.057 186.379 135.741 186.596 135.4 186.825C134.322 187.547 133.231 188.26 132.091 188.963C131.741 189.183 131.385 189.403 131.025 189.617C130.666 189.831 130.387 190.004 130.065 190.196C129.956 190.265 129.842 190.333 129.73 190.395L128.745 190.974C128.361 191.197 127.973 191.42 127.583 191.64C127.192 191.86 126.867 192.043 126.498 192.26C126.031 192.52 125.569 192.777 125.082 193.028L124.735 193.217C123.527 193.803 123.877 193.803 122.471 194.147V63.7988C122.848 63.7547 123.23 63.7931 123.591 63.9113C123.953 64.0295 124.284 64.2248 124.562 64.4835C124.627 64.5486 124.698 64.6136 124.77 64.6787C124.841 64.7438 124.977 64.877 125.079 64.9885C125.182 65.1001 125.389 65.2767 125.557 65.4223C125.628 65.4905 125.702 65.5555 125.78 65.6206C125.857 65.6857 125.931 65.7538 126.009 65.8189C126.319 66.0884 126.65 66.3704 127.01 66.6585C127.189 66.8042 127.372 66.9684 127.564 67.0985C127.756 67.2286 127.952 67.4083 128.153 67.554C128.354 67.6996 128.565 67.8638 128.773 68.0218C129.411 68.4897 130.108 68.973 130.861 69.4626C131.112 69.6299 131.369 69.7941 131.632 69.9583L132.032 70.2031C133.017 70.8227 134.089 71.4207 135.245 72.0249L135.886 72.3502C136.316 72.5568 136.758 72.7726 137.213 72.9978C137.668 73.2116 138.142 73.4254 138.61 73.633C138.848 73.7383 139.09 73.8436 139.335 73.9428C139.824 74.1493 140.324 74.3559 140.835 74.5625L141.612 74.8723C141.941 74.9962 142.269 75.1171 142.607 75.2348L143.115 75.4145C143.626 75.588 144.147 75.7646 144.68 75.9319L145.758 76.2604L146.641 76.5144L147.546 76.7592L148.475 76.9978L149.457 77.2332L150.241 77.413C150.985 77.5772 151.741 77.7228 152.518 77.8746L153.346 78.0202L154.374 78.1937C157.734 78.7472 161.132 79.0352 164.537 79.0551H165.327C165.528 79.0551 165.721 79.0551 165.919 79.0551C166.065 79.0551 166.207 79.0551 166.353 79.0551C166.498 79.0551 166.724 79.0551 166.91 79.0334L167.387 79.0055C168.007 78.9725 168.601 78.9239 169.169 78.8599L169.575 78.8165C170.086 78.7607 170.576 78.6926 171.044 78.6213C171.353 78.5686 171.663 78.5191 171.973 78.4602C172.122 78.4354 172.264 78.4075 172.407 78.3765C172.754 78.3115 173.092 78.2371 173.42 78.1628C173.838 78.0667 174.238 77.9645 174.622 77.8529L175.019 77.7383L175.403 77.6205C175.784 77.5028 176.143 77.3851 176.481 77.258C176.593 77.2209 176.701 77.1775 176.807 77.1372L177.181 76.9885C177.454 76.88 177.714 76.7685 177.962 76.657C178.272 76.5175 178.56 76.375 178.83 76.2356C179.197 76.0461 179.604 75.9472 180.018 75.9472C180.431 75.9472 180.838 76.0461 181.205 76.2357C181.573 76.4252 181.889 76.6999 182.129 77.0368C182.368 77.3736 182.524 77.7629 182.582 78.1721C182.631 78.581 182.681 79.0179 182.731 79.4796C182.752 79.6748 182.771 79.8731 182.793 80.0775C182.842 80.6012 182.895 81.1589 182.947 81.7445C182.966 81.9892 182.988 82.2371 183.009 82.485C183.031 82.7328 183.053 83.083 183.075 83.3897C183.096 83.6964 183.118 83.9629 183.133 84.2572C183.202 85.3138 183.257 86.4261 183.304 87.6221C183.304 87.9629 183.329 88.3068 183.338 88.6569C183.347 89.007 183.356 89.4036 183.366 89.7847C183.375 90.1658 183.366 90.4664 183.384 90.8165C183.384 90.9187 183.384 91.021 183.384 91.1263C183.384 91.3525 183.384 91.5818 183.384 91.811C183.384 93.0587 183.371 94.3827 183.344 95.7831Z" fill="url(#paint4_linear_14_24)"/>
<path d="M127.358 157.382V133.407C131.947 132.313 136.034 129.706 138.96 126.006C141.887 122.305 143.482 117.728 143.488 113.01V99.213H101.561V113.01C101.568 117.729 103.165 122.308 106.093 126.008C109.021 129.708 113.11 132.315 117.701 133.407V144.759H110.264C109.965 144.76 109.678 144.879 109.466 145.091C109.254 145.303 109.134 145.59 109.134 145.89V151.064C109.134 151.364 109.253 151.652 109.465 151.864C109.677 152.076 109.965 152.195 110.264 152.195H117.701V157.385C117.701 157.685 117.82 157.972 118.032 158.184C118.244 158.396 118.532 158.516 118.831 158.516H126.237C126.385 158.515 126.531 158.485 126.668 158.427C126.804 158.37 126.928 158.286 127.032 158.181C127.136 158.076 127.219 157.951 127.275 157.814C127.331 157.677 127.359 157.53 127.358 157.382ZM109.521 113.01V107.173H135.529V113.01C135.401 116.374 133.976 119.557 131.551 121.892C129.126 124.227 125.891 125.531 122.525 125.531C119.159 125.531 115.923 124.227 113.499 121.892C111.074 119.557 109.648 116.374 109.521 113.01Z" fill="url(#paint5_linear_14_24)"/>
<defs>
<filter id="filter0_b_14_24" x="9.93335" y="0.331615" width="230.133" height="249.337" filterUnits="userSpaceOnUse" color-interpolation-filters="sRGB">
<feFlood flood-opacity="0" result="BackgroundImageFix"/>
<feGaussianBlur in="BackgroundImageFix" stdDeviation="12.5"/>
<feComposite in2="SourceAlpha" operator="in" result="effect1_backgroundBlur_14_24"/>
<feBlend mode="normal" in="SourceGraphic" in2="effect1_backgroundBlur_14_24" result="shape"/>
</filter>
<linearGradient id="paint0_linear_14_24" x1="202" y1="-13" x2="48" y2="323" gradientUnits="userSpaceOnUse">
<stop stop-color="#458353"/>
<stop offset="0.333333" stop-color="#28B547"/>
<stop offset="0.666667" stop-color="#104D1D"/>
<stop offset="1" stop-color="#0C4D1B"/>
</linearGradient>
<linearGradient id="paint1_linear_14_24" x1="84.8182" y1="45.5818" x2="42.8223" y2="228.342" gradientUnits="userSpaceOnUse">
<stop stop-color="white" stop-opacity="0"/>
<stop offset="1" stop-color="white" stop-opacity="0.2"/>
</linearGradient>
<radialGradient id="paint2_radial_14_24" cx="0" cy="0" r="1" gradientUnits="userSpaceOnUse" gradientTransform="translate(125.981 132.742) scale(71.1241 73.0817)">
<stop stop-color="#636982"/>
<stop offset="0.05" stop-color="#767C91"/>
<stop offset="0.18" stop-color="#A0A3B3"/>
<stop offset="0.31" stop-color="#C2C5CE"/>
<stop offset="0.44" stop-color="#DDDEE4"/>
<stop offset="0.58" stop-color="#F0F1F3"/>
<stop offset="0.72" stop-color="#FBFBFC"/>
<stop offset="0.87" stop-color="white"/>
</radialGradient>
<linearGradient id="paint3_linear_14_24" x1="57.8413" y1="129.007" x2="227.337" y2="129.007" gradientUnits="userSpaceOnUse">
<stop stop-color="#0D0E19"/>
<stop offset="0.6" stop-color="#20222A"/>
<stop offset="0.84" stop-color="#3E4151"/>
<stop offset="1" stop-color="#4E5266"/>
</linearGradient>
<linearGradient id="paint4_linear_14_24" x1="81.126" y1="128.957" x2="282.569" y2="128.957" gradientUnits="userSpaceOnUse">
<stop stop-color="#0D0E19"/>
<stop offset="0.6" stop-color="#20222A"/>
<stop offset="0.84" stop-color="#3E4151"/>
<stop offset="1" stop-color="#4E5266"/>
</linearGradient>
<linearGradient id="paint5_linear_14_24" x1="146.472" y1="172.068" x2="111.16" y2="90.0543" gradientUnits="userSpaceOnUse">
<stop offset="0.09" stop-color="#B27F2A"/>
<stop offset="0.16" stop-color="#B68631"/>
<stop offset="0.26" stop-color="#C39943"/>
<stop offset="0.38" stop-color="#D8B861"/>
<stop offset="0.52" stop-color="#F4E38B"/>
<stop offset="0.55" stop-color="#F4DD62"/>
<stop offset="0.66" stop-color="#F4DD62"/>
<stop offset="1" stop-color="#B27F2A"/>
</linearGradient>
</defs>
</svg>
